<?xml version="1.0" encoding="utf-8"?>
<svg xmlns="http://www.w3.org/2000/svg" fill="none" height="100%" overflow="visible" preserveAspectRatio="none" style="display: block;" viewBox="0 0 136 24" width="100%">
<g id="Social links">
<g clip-path="url(#clip0_0_8)" id="Social link 1">
<path d="M12 2.163C15.204 2.163 15.584 2.175 16.85 2.233C20.102 2.381 21.621 3.924 21.769 7.152C21.827 8.417 21.838 8.797 21.838 12.001C21.838 15.206 21.826 15.585 21.769 16.85C21.62 20.075 20.105 21.621 16.85 21.769C15.584 21.827 15.206 21.839 12 21.839C8.796 21.839 8.416 21.827 7.151 21.769C3.891 21.62 2.38 20.07 2.232 16.849C2.174 15.584 2.162 15.205 2.162 12C2.162 8.796 2.175 8.417 2.232 7.151C2.381 3.924 3.896 2.38 7.151 2.232C8.417 2.175 8.796 2.163 12 2.163ZM12 0C8.741 0 8.333 0.014 7.053 0.072C2.695 0.272 0.273 2.69 0.073 7.052C0.014 8.333 0 8.741 0 12C0 15.259 0.014 15.668 0.072 16.948C0.272 21.306 2.69 23.728 7.052 23.928C8.333 23.986 8.741 24 12 24C15.259 24 15.668 23.986 16.948 23.928C21.302 23.728 23.73 21.31 23.927 16.948C23.986 15.668 24 15.259 24 12C24 8.741 23.986 8.333 23.928 7.053C23.732 2.699 21.311 0.273 16.949 0.073C15.668 0.014 15.259 0 12 0ZM12 5.838C8.597 5.838 5.838 8.597 5.838 12C5.838 15.403 8.597 18.163 12 18.163C15.403 18.163 18.162 15.404 18.162 12C18.162 8.597 15.403 5.838 12 5.838ZM12 16C9.791 16 8 14.21 8 12C8 9.791 9.791 8 12 8C14.209 8 16 9.791 16 12C16 14.21 14.209 16 12 16ZM18.406 4.155C17.61 4.155 16.965 4.8 16.965 5.595C16.965 6.39 17.61 7.035 18.406 7.035C19.201 7.035 19.845 6.39 19.845 5.595C19.845 4.8 19.201 4.155 18.406 4.155Z" fill="var(--fill-0, white)" id="Vector"/>
</g>
<g clip-path="url(#clip1_0_8)" id="Social link 2">
<g id="Vector_2">
<path clip-rule="evenodd" d="M64 3C64 1.34423 62.6558 0 61 0H43C41.3442 0 40 1.34423 40 3V21C40 22.6558 41.3442 24 43 24H61C62.6558 24 64 22.6558 64 21V3Z" fill="black" fill-opacity="0.45" fill-rule="evenodd"/>
<path d="M46.8816 8.37402H42.8616V20.466H46.8816V8.37402Z" fill="var(--fill-0, white)"/>
<path d="M44.899 2.54395C43.5236 2.54395 42.625 3.44816 42.625 4.6333C42.625 5.79355 43.4963 6.72271 44.8458 6.72271H44.8718C46.2735 6.72271 47.146 5.79355 47.146 4.6333C47.1199 3.44816 46.2736 2.54395 44.899 2.54395Z" fill="var(--fill-0, white)"/>
<path d="M56.7475 8.08984C54.6151 8.08984 53.66 9.26252 53.1252 10.0862V8.37419H49.1062C49.1595 9.50842 49.1062 20.4661 49.1062 20.4661H53.1251V13.7131C53.1251 13.3517 53.1511 12.9903 53.2576 12.732C53.5477 12.0101 54.2094 11.2623 55.3198 11.2623C56.7735 11.2623 57.3559 12.3716 57.3559 13.9964V20.4661H61.375V13.5319C61.375 9.81766 59.3919 8.08984 56.7475 8.08984Z" fill="var(--fill-0, white)"/>
</g>
</g>
<g id="Social link 3">
<path d="M98.9 1.15283H102.582L94.54 10.3418L104 22.8478H96.595L90.791 15.2648L84.157 22.8478H80.469L89.069 13.0168L80 1.15283H87.593L92.834 8.08383L98.9 1.15283ZM97.607 20.6468H99.646L86.482 3.23883H84.292L97.607 20.6468Z" fill="var(--fill-0, white)" id="Vector_3"/>
</g>
</g>
<defs>
<clipPath id="clip0_0_8">
<rect fill="white" height="24" width="24"/>
</clipPath>
<clipPath id="clip1_0_8">
<rect fill="white" height="24" transform="translate(40)" width="24"/>
</clipPath>
</defs>
</svg>